<?xml version="1.0" encoding="utf-8"?>
<!-- Generator: Adobe Illustrator 24.0.0, SVG Export Plug-In . SVG Version: 6.00 Build 0)  -->
<svg version="1.1" xmlns="http://www.w3.org/2000/svg" xmlns:xlink="http://www.w3.org/1999/xlink" x="0px" y="0px"
	 viewBox="0 0 256 256" enable-background="new 0 0 256 256" xml:space="preserve">
<g id="Layer_2">
</g>
<g id="Layer_1">
	<g>
	</g>
	<g>
		<path fill="#F0C020" d="M238.12,131.04v100.28c0,5.52-4.48,10-10,10H27.88c-5.52,0-10-4.48-10-10V131.04
			c3.31,1.78,7.1,2.79,11.14,2.79c13.01,0,23.56-10.55,23.56-23.56V95.85h150.84v14.42c0,13.01,10.55,23.56,23.56,23.56
			C231.02,133.83,234.81,132.82,238.12,131.04z"/>
		<path fill="#FC5D3D" d="M250.55,95.85v14.42c0,8.96-5.01,16.79-12.43,20.77c-3.31,1.78-7.1,2.79-11.14,2.79
			c-13.01,0-23.56-10.55-23.56-23.56V95.85H250.55z"/>
		<path fill="#FC5D3D" d="M52.58,95.85v14.42c0,13.01-10.55,23.56-23.56,23.56c-4.04,0-7.83-1.01-11.14-2.79
			c-7.42-3.98-12.43-11.82-12.43-20.77V95.85H52.58z"/>
		<path fill="#F2E1D6" d="M203.42,95.855v13.436c0,13.546-10.978,24.535-24.535,24.535c-13.556,0-24.535-10.989-24.535-24.535
			V95.855H203.42z"/>
		<path fill="#FC5D3D" d="M154.35,95.855v11.62c0,14.556-11.795,26.35-26.35,26.35s-26.35-11.795-26.35-26.35v-11.62H154.35z"/>
		<path fill="#F2E1D6" d="M101.65,95.855v13.436c0,13.546-10.978,24.535-24.535,24.535S52.58,122.836,52.58,109.29V95.855H101.65z"
			/>
		<polygon fill="#FC5D3D" points="216.754,45.537 39.246,45.537 5.457,95.855 250.543,95.855 		"/>
		<polygon fill="#F2E1D6" points="203.422,95.855 154.346,95.855 147.084,45.537 182.627,45.537 		"/>
		<polygon fill="#F2E1D6" points="73.373,45.537 108.916,45.537 101.654,95.855 52.578,95.855 		"/>
		<path fill="#72C2E9" d="M184.049,189.733h-14.936c-3.729,0-7.196,1.131-10.075,3.06c-1.765,1.186-3.313,2.679-4.562,4.39
			c-3.286-3.485-7.948-5.648-13.125-5.648h-26.703c-5.178,0-9.839,2.163-13.125,5.648c-1.258-1.72-2.806-3.204-4.571-4.39
			c-2.878-1.937-6.336-3.06-10.066-3.06H71.951c-9.993,0-18.104,8.111-18.104,18.104v33.48h148.306v-33.48
			C202.153,197.843,194.042,189.733,184.049,189.733z"/>
		<path fill="#4BA5C8" d="M101.523,197.182c-3.087,3.232-4.979,7.622-4.979,12.455v31.679h-6.336v-31.679
			c0-6.309,2.39-12.283,6.735-16.836l0.009-0.009C98.717,193.978,100.265,195.463,101.523,197.182z"/>
		<path fill="#4BA5C8" d="M165.792,209.638v31.679h-6.336v-31.679c0-4.834-1.892-9.224-4.979-12.455
			c1.249-1.711,2.797-3.204,4.562-4.39c0.018,0.018,0.027,0.027,0.045,0.045C163.402,197.354,165.792,203.329,165.792,209.638z"/>
		<path fill="#7C7B7A" d="M145.382,147.097l-6.431,3.356c-1.652,0.862-3.488,1.313-5.352,1.313h-13.774c-4.781,0-8.426,4.28-7.665,9
			l0.787,4.885h29.81h0c4.616-4.919,5.72-12.175,2.774-18.244L145.382,147.097z"/>
		<path fill="#7C7B7A" d="M92.073,167.452H66.411l-0.67-4.2c-0.534-3.277,1.403-6.3,4.327-7.341
			c1.394-0.543,1.293-0.407,14.121-0.407c1.602,0,3.186-0.389,4.607-1.131l5.531-2.888C97.12,157.07,95.95,163.321,92.073,167.452z"
			/>
		<path fill="#FFB69F" d="M127.852,191.534L127.852,191.534c-8.232,0-14.905-6.673-14.905-14.905V165.65h29.81v10.979
			C142.757,184.861,136.084,191.534,127.852,191.534z"/>
		<path fill="#FFB69F" d="M79.244,189.733L79.244,189.733c-7.085,0-12.828-5.743-12.828-12.828v-9.449h25.657v9.449
			C92.072,183.989,86.329,189.733,79.244,189.733z"/>
		<path fill="#FFB69F" d="M176.554,189.733L176.554,189.733c-7.085,0-12.828-5.743-12.828-12.828v-9.449h25.657v9.449
			C189.382,183.989,183.638,189.733,176.554,189.733z"/>
		<path fill="#7C7B7A" d="M189.381,167.452h-25.653l-0.679-4.2c-0.652-4.064,2.48-7.748,6.599-7.748h11.849
			c1.412,0,2.788-0.299,4.064-0.869c0.468-0.21,5.616-2.907,6.083-3.15C194.48,157.562,193.1,163.489,189.381,167.452z"/>
		<path fill="#72C2E9" d="M167.617,25.425v20.111h-12.89V27.574h-53.442v17.963H88.383V25.425c0-5.93,4.812-10.742,10.742-10.742
			h57.749C162.804,14.683,167.617,19.496,167.617,25.425z"/>
		<path fill="#7D7B79" d="M69.219,34.485H54.681c-2.761,0-5,2.239-5,5v6.051h24.538v-6.051
			C74.219,36.724,71.98,34.485,69.219,34.485z"/>
		<path fill="#7D7B79" d="M201.319,34.485h-14.538c-2.761,0-5,2.239-5,5v6.051h24.538v-6.051
			C206.319,36.724,204.081,34.485,201.319,34.485z"/>
		<g>
			<g>
				<path fill="#FFCBC2" d="M29.017,127.07c-0.782,0-1.569-0.055-2.34-0.163c-1.367-0.191-2.32-1.455-2.128-2.823
					c0.191-1.367,1.454-2.322,2.823-2.128c0.542,0.076,1.096,0.114,1.646,0.114c1.381,0,2.5,1.119,2.5,2.5
					S30.398,127.07,29.017,127.07z M16.523,121.494c-2.781-3.09-4.312-7.079-4.312-11.23v-5.157c0-1.381,1.119-2.5,2.5-2.5
					s2.5,1.119,2.5,2.5v5.157c0,2.915,1.076,5.715,3.029,7.887c0.924,1.026,0.84,2.607-0.187,3.53
					C19.027,122.604,17.446,122.521,16.523,121.494z"/>
			</g>
			<g>
				<path fill="#FFFFFF" d="M77.115,127.07c-0.775,0-1.556-0.051-2.318-0.15c-1.369-0.18-2.333-1.435-2.154-2.804
					c0.18-1.369,1.433-2.33,2.804-2.154c0.548,0.072,1.11,0.108,1.669,0.108c1.381,0,2.5,1.119,2.5,2.5S78.496,127.07,77.115,127.07
					z M64.55,121.861c-3.365-3.363-5.219-7.829-5.219-12.575v-4.179c0-1.381,1.119-2.5,2.5-2.5s2.5,1.119,2.5,2.5v4.179
					c0,3.41,1.333,6.619,3.753,9.038c0.977,0.976,0.977,2.559,0.001,3.536C67.109,122.837,65.527,122.838,64.55,121.861z"/>
			</g>
			<g>
				<path fill="#FFCBC2" d="M226.982,127.07c-0.78,0-1.568-0.055-2.34-0.163c-1.367-0.191-2.32-1.455-2.129-2.823
					c0.191-1.367,1.447-2.319,2.822-2.129c0.543,0.076,1.097,0.115,1.646,0.115c1.381,0,2.5,1.119,2.5,2.5
					S228.363,127.07,226.982,127.07z M214.488,121.494c-2.78-3.091-4.312-7.079-4.312-11.23v-5.157c0-1.381,1.119-2.5,2.5-2.5
					s2.5,1.119,2.5,2.5v5.157c0,2.914,1.075,5.715,3.028,7.886c0.924,1.026,0.84,2.607-0.187,3.531
					C216.992,122.604,215.41,122.521,214.488,121.494z"/>
			</g>
			<g>
				<path fill="#FFFFFF" d="M178.883,127.07c-0.775,0-1.555-0.051-2.317-0.15c-1.369-0.18-2.334-1.435-2.154-2.804
					s1.447-2.332,2.803-2.154c0.549,0.072,1.11,0.108,1.669,0.108c1.381,0,2.5,1.119,2.5,2.5S180.264,127.07,178.883,127.07z
					 M166.318,121.861c-3.364-3.363-5.218-7.828-5.218-12.574v-4.179c0-1.381,1.119-2.5,2.5-2.5s2.5,1.119,2.5,2.5v4.179
					c0,3.41,1.333,6.619,3.753,9.037c0.977,0.976,0.977,2.559,0.001,3.536C168.877,122.837,167.295,122.837,166.318,121.861z"/>
			</g>
			<g>
				<path fill="#FFCBC2" d="M127.999,127.07c-0.765,0-1.534-0.044-2.286-0.133c-1.372-0.161-2.353-1.402-2.192-2.773
					c0.161-1.372,1.401-2.354,2.773-2.192c0.56,0.065,1.133,0.099,1.705,0.099c1.381,0,2.5,1.119,2.5,2.5
					S129.38,127.07,127.999,127.07z M115.352,122.431c-4.414-3.738-6.945-9.188-6.945-14.953v-2.371c0-1.381,1.119-2.5,2.5-2.5
					s2.5,1.119,2.5,2.5v2.371c0,4.292,1.887,8.352,5.177,11.138c1.054,0.892,1.185,2.47,0.292,3.523
					C117.984,123.193,116.406,123.324,115.352,122.431z"/>
			</g>
			<g>
				<path fill="#FFCBC2" d="M57.24,86.789H29.017c-1.875,0-3.085-1.995-2.216-3.658l13.548-25.935
					c0.64-1.224,2.15-1.697,3.374-1.058c1.224,0.639,1.697,2.149,1.058,3.374L33.143,81.789H57.24c1.381,0,2.5,1.119,2.5,2.5
					S58.621,86.789,57.24,86.789z"/>
			</g>
			<g>
				<path fill="#FFCBC2" d="M226.021,86.786h-28.864c-1.381,0-2.5-1.119-2.5-2.5s1.119-2.5,2.5-2.5h28.864
					c1.381,0,2.5,1.119,2.5,2.5S227.402,86.786,226.021,86.786z"/>
			</g>
			<g>
				<path fill="#FFCBC2" d="M152.158,86.789h-48.317c-1.381,0-2.5-1.119-2.5-2.5s1.119-2.5,2.5-2.5h48.317
					c1.381,0,2.5,1.119,2.5,2.5S153.538,86.789,152.158,86.789z"/>
			</g>
			<g>
				<path fill="#FFFFFF" d="M103.279,86.789H58.841c-1.381,0-2.5-1.119-2.5-2.5s1.119-2.5,2.5-2.5h44.438c1.381,0,2.5,1.119,2.5,2.5
					S104.66,86.789,103.279,86.789z"/>
			</g>
			<g>
				<path fill="#FFFFFF" d="M196.947,86.789h-44.789c-1.381,0-2.5-1.119-2.5-2.5s1.119-2.5,2.5-2.5h44.789
					c1.381,0,2.5,1.119,2.5,2.5S198.327,86.789,196.947,86.789z"/>
			</g>
			<g>
				<path fill="#F8E5B0" d="M40.869,233.818h-12.99c-1.38,0-2.5-1.12-2.5-2.5s1.12-2.5,2.5-2.5h12.99c1.37,0,2.5,1.12,2.5,2.5
					S42.239,233.818,40.869,233.818z"/>
			</g>
			<g>
				<path fill="#F8E5B0" d="M228.119,233.818h-25.971c-1.38,0-2.5-1.12-2.5-2.5s1.12-2.5,2.5-2.5h23.471v-85.01
					c0-1.38,1.12-2.5,2.5-2.5s2.5,1.12,2.5,2.5v87.51C230.619,232.68,229.528,233.818,228.119,233.818z"/>
			</g>
			<g>
				<path fill="#C5E5FE" d="M202.149,233.818H62.969c-1.37,0-2.49-1.12-2.49-2.5s1.12-2.5,2.49-2.5h139.18c1.381,0,2.5,1.12,2.5,2.5
					S203.53,233.818,202.149,233.818z"/>
			</g>
			<g>
				<g>
					<g>
						<path fill="#FFCBC2" d="M29.017,127.07c-0.782,0-1.569-0.055-2.34-0.163c-1.367-0.191-2.32-1.455-2.128-2.823
							c0.191-1.367,1.454-2.322,2.823-2.128c0.542,0.076,1.096,0.114,1.646,0.114c1.381,0,2.5,1.119,2.5,2.5
							S30.398,127.07,29.017,127.07z M16.523,121.494c-2.781-3.09-4.312-7.079-4.312-11.23v-5.157c0-1.381,1.119-2.5,2.5-2.5
							s2.5,1.119,2.5,2.5v5.157c0,2.915,1.076,5.715,3.029,7.887c0.924,1.026,0.84,2.607-0.187,3.53
							C19.027,122.604,17.446,122.521,16.523,121.494z"/>
					</g>
					<g>
						<path fill="#FFFFFF" d="M77.115,127.07c-0.775,0-1.556-0.051-2.318-0.15c-1.369-0.18-2.333-1.435-2.154-2.804
							c0.18-1.369,1.433-2.33,2.804-2.154c0.548,0.072,1.11,0.108,1.669,0.108c1.381,0,2.5,1.119,2.5,2.5
							S78.496,127.07,77.115,127.07z M64.55,121.861c-3.365-3.363-5.219-7.829-5.219-12.575v-4.179c0-1.381,1.119-2.5,2.5-2.5
							s2.5,1.119,2.5,2.5v4.179c0,3.41,1.333,6.619,3.753,9.038c0.977,0.976,0.977,2.559,0.001,3.536
							C67.109,122.837,65.527,122.838,64.55,121.861z"/>
					</g>
					<g>
						<path fill="#FFCBC2" d="M226.982,127.07c-0.78,0-1.568-0.055-2.34-0.163c-1.367-0.191-2.32-1.455-2.129-2.823
							c0.191-1.367,1.447-2.319,2.822-2.129c0.543,0.076,1.097,0.115,1.646,0.115c1.381,0,2.5,1.119,2.5,2.5
							S228.363,127.07,226.982,127.07z M214.488,121.494c-2.78-3.091-4.312-7.079-4.312-11.23v-5.157c0-1.381,1.119-2.5,2.5-2.5
							s2.5,1.119,2.5,2.5v5.157c0,2.914,1.075,5.715,3.028,7.886c0.924,1.026,0.84,2.607-0.187,3.531
							C216.992,122.604,215.41,122.521,214.488,121.494z"/>
					</g>
					<g>
						<path fill="#FFFFFF" d="M178.883,127.07c-0.775,0-1.555-0.051-2.317-0.15c-1.369-0.18-2.334-1.435-2.154-2.804
							s1.447-2.332,2.803-2.154c0.549,0.072,1.11,0.108,1.669,0.108c1.381,0,2.5,1.119,2.5,2.5S180.264,127.07,178.883,127.07z
							 M166.318,121.861c-3.364-3.363-5.218-7.828-5.218-12.574v-4.179c0-1.381,1.119-2.5,2.5-2.5s2.5,1.119,2.5,2.5v4.179
							c0,3.41,1.333,6.619,3.753,9.037c0.977,0.976,0.977,2.559,0.001,3.536C168.877,122.837,167.295,122.837,166.318,121.861z"/>
					</g>
					<g>
						<path fill="#FFCBC2" d="M127.999,127.07c-0.765,0-1.534-0.044-2.286-0.133c-1.372-0.161-2.353-1.402-2.192-2.773
							c0.161-1.372,1.401-2.354,2.773-2.192c0.56,0.065,1.133,0.099,1.705,0.099c1.381,0,2.5,1.119,2.5,2.5
							S129.38,127.07,127.999,127.07z M115.352,122.431c-4.414-3.738-6.945-9.188-6.945-14.953v-2.371c0-1.381,1.119-2.5,2.5-2.5
							s2.5,1.119,2.5,2.5v2.371c0,4.292,1.887,8.352,5.177,11.138c1.054,0.892,1.185,2.47,0.292,3.523
							C117.984,123.193,116.406,123.324,115.352,122.431z"/>
					</g>
					<g>
						<path fill="#FFCBC2" d="M57.24,86.789H29.017c-1.875,0-3.085-1.995-2.216-3.658l13.548-25.935
							c0.64-1.224,2.15-1.697,3.374-1.058c1.224,0.639,1.697,2.149,1.058,3.374L33.143,81.789H57.24c1.381,0,2.5,1.119,2.5,2.5
							S58.621,86.789,57.24,86.789z"/>
					</g>
					<g>
						<path fill="#FFCBC2" d="M226.021,86.786h-28.864c-1.381,0-2.5-1.119-2.5-2.5s1.119-2.5,2.5-2.5h28.864
							c1.381,0,2.5,1.119,2.5,2.5S227.402,86.786,226.021,86.786z"/>
					</g>
					<g>
						<path fill="#FFCBC2" d="M152.158,86.789h-48.317c-1.381,0-2.5-1.119-2.5-2.5s1.119-2.5,2.5-2.5h48.317
							c1.381,0,2.5,1.119,2.5,2.5S153.538,86.789,152.158,86.789z"/>
					</g>
					<g>
						<path fill="#FFFFFF" d="M103.279,86.789H58.841c-1.381,0-2.5-1.119-2.5-2.5s1.119-2.5,2.5-2.5h44.438
							c1.381,0,2.5,1.119,2.5,2.5S104.66,86.789,103.279,86.789z"/>
					</g>
					<g>
						<path fill="#FFFFFF" d="M196.947,86.789h-44.789c-1.381,0-2.5-1.119-2.5-2.5s1.119-2.5,2.5-2.5h44.789
							c1.381,0,2.5,1.119,2.5,2.5S198.327,86.789,196.947,86.789z"/>
					</g>
				</g>
			</g>
			<g>
				<path fill="#F8E5B0" d="M228.119,233.818h-25.971c-1.38,0-2.5-1.12-2.5-2.5s1.12-2.5,2.5-2.5h23.471v-85.01
					c0-1.38,1.12-2.5,2.5-2.5s2.5,1.12,2.5,2.5v87.51C230.619,232.68,229.528,233.818,228.119,233.818z"/>
			</g>
			<path d="M253.034,95.701c-0.028-0.476-0.201-0.953-0.469-1.319l-33.737-50.241c-0.464-0.691-1.242-1.106-2.075-1.106h-7.935
				v-3.551c0-4.136-3.364-7.5-7.5-7.5h-14.538c-4.136,0-7.5,3.364-7.5,7.5v3.551h-9.164V25.424c0-7.301-5.94-13.242-13.242-13.242
				h-57.75c-7.302,0-13.242,5.94-13.242,13.242v17.611h-9.164v-3.551c0-4.136-3.364-7.5-7.5-7.5H54.68c-4.136,0-7.5,3.364-7.5,7.5
				v3.551h-7.935c-0.833,0-1.611,0.415-2.076,1.106L3.433,94.382c-0.315,0.432-0.483,1.01-0.483,1.466v14.42
				c0,9.112,4.729,17.482,12.43,22.207v98.843c0,6.89,5.61,12.5,12.5,12.5c6.735,0,193.491,0,200.24,0c6.89,0,12.5-5.61,12.5-12.5
				v-30.28c0-1.38-1.12-2.5-2.5-2.5s-2.5,1.12-2.5,2.5v30.28c-0.011,4.13-3.37,7.49-7.5,7.5h-23.471v-30.98
				c0-10.162-7.401-18.614-17.093-20.288c2.672-2.76,4.325-6.512,4.325-10.647v-8.521c4.126-4.972,4.922-11.755,2.027-17.957
				c-0.605-1.292-2.161-1.815-3.421-1.16c-5.948,3.104-6.739,3.736-8.992,3.736h-11.849c-5.65,0-9.963,5.057-9.066,10.647
				l0.645,3.988v9.265c0,4.135,1.653,7.887,4.324,10.647c-4.262,0.746-8.177,2.776-11.3,6.019c-3.63-2.92-8.21-4.54-12.9-4.54
				h-1.305c3.213-3.16,5.213-7.549,5.213-12.401v-10.048c4.478-5.343,5.947-13.183,2.375-20.572
				c-0.614-1.268-2.156-1.782-3.407-1.128c-6.843,3.571-7.836,4.385-10.627,4.385h-13.774c-6.321,0-11.138,5.662-10.133,11.897
				l0.755,4.688v10.778c0,4.852,2,9.241,5.213,12.401h-1.01c-4.69,0-9.27,1.62-12.9,4.54c-3.004-3.119-6.957-5.302-11.473-6.052
				c2.653-2.757,4.294-6.494,4.294-10.614v-8.519c4.193-5.051,4.997-12.009,1.991-18.019c-0.623-1.245-2.15-1.747-3.393-1.098
				c-5.693,2.972-6.638,3.735-8.981,3.735c-13.185,0-13.138-0.158-14.959,0.552c-4.163,1.482-6.668,5.729-5.957,10.09l0.643,4.028
				v9.23c0,4.144,1.66,7.904,4.342,10.665c-5.107,0.94-9.758,3.796-12.887,8.04c-0.82,1.108-0.585,2.685,0.53,3.49
				c1.07,0.8,2.7,0.55,3.49-0.52c2.99-4.03,7.56-6.35,12.56-6.35c5.749,0,9.293,0,14.94,0c4.171,0.013,8.263,1.638,11.367,4.948
				c-2.724,3.56-4.212,7.904-4.212,12.46v29.182H56.349v-22.49c0-1.38-1.12-2.5-2.5-2.5c-1.38,0-2.5,1.12-2.5,2.5v22.49h-23.47
				c-4.13-0.01-7.49-3.37-7.5-7.5v-96.469c12.991,4.547,26.872-1.727,32.375-13.841c4.374,9.054,13.649,15.316,24.36,15.316
				c11.138,0,20.722-6.771,24.858-16.413c4.654,9.699,14.571,16.413,26.028,16.413c11.457,0,21.374-6.714,26.028-16.413
				c4.136,9.641,13.72,16.413,24.857,16.413c10.711,0,19.987-6.261,24.36-15.316c5.505,12.117,19.387,18.386,32.375,13.841v46.19
				c0,1.38,1.12,2.5,2.5,2.5s2.5-1.12,2.5-2.5v-48.563c7.702-4.726,12.43-13.096,12.43-22.207
				C253.049,109.891,253.057,96.078,253.034,95.701z M68.914,176.903v-6.953h20.657v6.953c0,5.676-4.602,10.294-10.27,10.326
				C73.436,187.228,68.914,182.508,68.914,176.903z M70.974,158.239c0.952-0.371,1.663-0.237,13.214-0.237
				c3.596,0,5.62-1.34,8.802-3.001c0.894,3.468,0.16,7.115-2.063,9.95H68.543l-0.335-2.102
				C67.885,160.864,69.019,158.936,70.974,158.239z M166.225,176.903v-6.953h20.656v6.953c0,5.676-4.602,10.294-10.27,10.326
				C170.746,187.228,166.225,182.508,166.225,176.903z M169.647,158.002h11.849c3.586,0,5.593-1.324,8.771-2.98
				c0.903,3.568,0.194,7.107-2.03,9.929h-22.382l-0.338-2.095C165.108,160.308,167.071,158.002,169.647,158.002z M169.109,192.228
				c3.465,0,6.975,0,14.94,0c8.59,0.02,15.59,7.02,15.6,15.61v30.98h-37.694v-29.182c0-4.556-1.489-8.901-4.213-12.461
				C160.816,193.882,164.934,192.228,169.109,192.228z M119.824,154.264h13.774c4.142,0,6.477-1.579,10.493-3.675
				c1.266,4.298,0.357,9.036-2.472,12.56h-26.544l-0.448-2.783C114.111,157.165,116.586,154.264,119.824,154.264z M115.446,176.627
				v-8.479h24.811v8.479c0,6.706-5.399,12.401-12.493,12.401C120.964,188.981,115.446,183.438,115.446,176.627z M99.044,209.636
				c0-8.474,6.857-15.587,15.605-15.608c9.578,0,16.959,0,26.7,0c8.729,0.021,15.605,7.115,15.605,15.608v29.182h-57.91V209.636z
				 M245.852,93.353H205.09l-6.791-16.425c-0.51-1.24-2.01-1.87-3.26-1.36c-1.271,0.53-1.88,1.99-1.36,3.27l6.001,14.515h-43.17
				l-6.54-45.318h30.988l5.091,12.313c0.53,1.312,2.023,1.879,3.26,1.36c1.271-0.53,1.88-1.99,1.36-3.27l-4.301-10.403h29.052
				L245.852,93.353z M75.044,48.035h30.984l-6.541,45.318H56.315L75.044,48.035z M152.226,43.035h-48.442V30.072h48.442V43.035z
				 M111.08,48.035h33.838l6.54,45.318H104.54L111.08,48.035z M184.281,39.484c0-1.378,1.121-2.5,2.5-2.5h14.538
				c1.379,0,2.5,1.122,2.5,2.5v3.551h-19.538V39.484z M90.883,25.424c0-4.544,3.697-8.242,8.242-8.242h57.75
				c4.545,0,8.242,3.697,8.242,8.242v17.611h-7.891V27.572c0-1.381-1.119-2.5-2.5-2.5h-53.442c-1.381,0-2.5,1.119-2.5,2.5v15.463
				h-7.901V25.424z M52.18,39.484c0-1.378,1.122-2.5,2.5-2.5h14.539c1.378,0,2.5,1.122,2.5,2.5v3.551H52.18V39.484z M40.577,48.035
				h29.056L50.905,93.353H10.147L40.577,48.035z M29.019,131.328c-11.659,0-21.07-9.434-21.07-21.06V98.353h42.13v10.936
				C50.079,122.96,39.87,131.328,29.019,131.328z M77.114,131.323c-12.15,0-22.035-9.885-22.035-22.035V98.353h44.07v9.121
				C99.149,122.924,88.359,131.323,77.114,131.323z M127.999,131.323c-13.151,0-23.85-10.699-23.85-23.85v-9.121h47.701v9.121
				C151.85,120.624,141.151,131.323,127.999,131.323z M178.884,131.323c-11.072,0-22.034-8.204-22.034-23.85v-9.121h44.069v10.936
				C200.919,121.439,191.034,131.323,178.884,131.323z M226.98,131.328c-10.687,0-21.061-8.175-21.061-22.04V98.353h42.13v11.916
				C248.049,121.899,238.634,131.328,226.98,131.328z"/>
			<path d="M191.219,66.328c-1.28,0.53-1.88,1.99-1.36,3.27c0.538,1.281,2.014,1.876,3.271,1.35c1.27-0.53,1.88-1.99,1.35-3.26
				C193.969,66.438,192.469,65.808,191.219,66.328z"/>
			<circle cx="238.119" cy="191.038" r="2.5"/>
			<path d="M53.699,208.818c1.156,0.161,2.583-0.787,2.7-2.28c0.11-1.38-0.91-2.59-2.29-2.7c-1.36-0.11-2.58,0.93-2.69,2.29
				C51.299,207.498,52.329,208.708,53.699,208.818z"/>
			<path d="M136.65,176.363c0-1.381-1.119-2.5-2.5-2.5s-2.5,1.119-2.5,2.5c0,2.092-1.702,3.794-3.794,3.794
				c-2.092,0-3.794-1.702-3.794-3.794c0-1.381-1.119-2.5-2.5-2.5s-2.5,1.119-2.5,2.5c0,4.849,3.945,8.794,8.794,8.794
				C132.704,185.157,136.65,181.212,136.65,176.363z"/>
			<path d="M84.664,174.175c-1.381,0-2.5,1.119-2.5,2.5c0,1.608-1.309,2.917-2.917,2.917c-1.608,0-2.917-1.309-2.917-2.917
				c0-1.381-1.119-2.5-2.5-2.5s-2.5,1.119-2.5,2.5c0,4.365,3.552,7.917,7.917,7.917c4.366,0,7.917-3.552,7.917-7.917
				C87.164,175.294,86.045,174.175,84.664,174.175z"/>
			<path d="M181.974,174.175c-1.381,0-2.5,1.119-2.5,2.5c0,1.608-1.309,2.917-2.918,2.917c-1.608,0-2.917-1.309-2.917-2.917
				c0-1.381-1.119-2.5-2.5-2.5s-2.5,1.119-2.5,2.5c0,4.365,3.552,7.917,7.917,7.917c4.366,0,7.918-3.552,7.918-7.917
				C184.474,175.294,183.355,174.175,181.974,174.175z"/>
		</g>
	</g>
</g>
</svg>
